<?xml version="1.0" encoding="UTF-8" standalone="no"?>
<!DOCTYPE svg PUBLIC "-//W3C//DTD SVG 1.1//EN" "http://www.w3.org/Graphics/SVG/1.1/DTD/svg11.dtd">
<svg width="100%" height="100%" viewBox="0 0 358 259" version="1.1" xmlns="http://www.w3.org/2000/svg" xmlns:xlink="http://www.w3.org/1999/xlink" xml:space="preserve" xmlns:serif="http://www.serif.com/" style="fill-rule:evenodd;clip-rule:evenodd;stroke-linejoin:round;stroke-miterlimit:2;">
    <g transform="matrix(1,0,0,1,-237,-81)">
        <g>
            <g transform="matrix(1,0,0,1,0,13.7203)">
                <rect x="245.91" y="76.781" width="74.09" height="50.66" style="fill:rgb(0,83,214);"/>
            </g>
            <g transform="matrix(2.22131,0,0,2.22131,-467.241,-125.158)">
                <text x="366.227px" y="111.609px" style="font-family:'ArialMT', 'Arial', sans-serif;font-size:12px;">pLDDT</text>
                <text x="407.354px" y="111.609px" style="font-family:'MalgunGothic', 'Malgun Gothic', sans-serif;font-size:12px;">∈</text>
                <text x="422.09px" y="111.609px" style="font-family:'ArialMT', 'Arial', sans-serif;font-size:12px;">[90 - 100]</text>
            </g>
        </g>
        <g transform="matrix(1,0,0,1,0,1.05541)">
            <g transform="matrix(1,0,0,1,0,74.4063)">
                <rect x="245.91" y="76.781" width="74.09" height="50.66" style="fill:rgb(85,202,249);"/>
            </g>
            <g transform="matrix(2.22131,0,0,2.22131,-467.241,-64.4717)">
                <text x="366.227px" y="111.609px" style="font-family:'ArialMT', 'Arial', sans-serif;font-size:12px;">pLDDT</text>
                <text x="407.354px" y="111.609px" style="font-family:'MalgunGothic', 'Malgun Gothic', sans-serif;font-size:12px;">∈</text>
                <text x="422.09px" y="111.609px" style="font-family:'ArialMT', 'Arial', sans-serif;font-size:12px;">[70 - 90]</text>
            </g>
        </g>
        <g transform="matrix(1,0,0,1,0,-11.6095)">
            <g transform="matrix(1,0,0,1,0,148.813)">
                <rect x="245.91" y="76.781" width="74.09" height="50.66" style="fill:rgb(255,219,19);"/>
            </g>
            <g transform="matrix(2.22131,0,0,2.22131,-467.241,9.93462)">
                <text x="366.227px" y="111.609px" style="font-family:'ArialMT', 'Arial', sans-serif;font-size:12px;">pLDDT</text>
                <text x="407.354px" y="111.609px" style="font-family:'MalgunGothic', 'Malgun Gothic', sans-serif;font-size:12px;">∈</text>
                <text x="422.09px" y="111.609px" style="font-family:'ArialMT', 'Arial', sans-serif;font-size:12px;">[50 - 70]</text>
            </g>
        </g>
        <g transform="matrix(1,0,0,1,0,-13.7203)">
            <g transform="matrix(1,0,0,1,0,212.665)">
                <rect x="245.91" y="76.781" width="74.09" height="50.66" style="fill:rgb(255,125,69);"/>
            </g>
            <g transform="matrix(2.22131,0,0,2.22131,-467.241,73.7869)">
                <text x="366.227px" y="111.609px" style="font-family:'ArialMT', 'Arial', sans-serif;font-size:12px;">pLDDT</text>
                <text x="407.354px" y="111.609px" style="font-family:'MalgunGothic', 'Malgun Gothic', sans-serif;font-size:12px;">∈</text>
                <text x="422.09px" y="111.609px" style="font-family:'ArialMT', 'Arial', sans-serif;font-size:12px;">[0 - 50]</text>
            </g>
        </g>
    </g>
</svg>
